<svg viewBox="0 0 61 60" id="instructions-result" fill="none" xmlns="http://www.w3.org/2000/svg">
  <path fill="#68B738" d="M.5 0h60v60H.5z"/>
  <ellipse cx="35.704" cy="24.33" rx="1.087" ry="1.085" fill="#fff"/>
  <ellipse cx="24.831" cy="24.33" rx="1.087" ry="1.085" fill="#fff"/>
  <ellipse cx="24.831" cy="37.351" rx="1.087" ry="1.085" fill="#fff"/>
  <ellipse cx="30.268" cy="39.522" rx="1.087" ry="1.085" fill="#fff"/>
  <ellipse cx="21.569" cy="30.775" rx="1.087" ry="1.085" fill="#fff"/>
  <ellipse cx="38.966" cy="30.775" rx="1.087" ry="1.085" fill="#fff"/>
  <ellipse cx="35.704" cy="37.351" rx="1.087" ry="1.085" fill="#fff"/>

  <mask id="a" fill="#fff">
    <path fill-rule="evenodd" clip-rule="evenodd" d="M35.422 42.058a1.058 1.058 0 0 1 1.217.196l1.825 1.875a.682.682 0 0 0 .977-.95l-1.357-1.394c-.426-.438-.361-1.15.098-1.552 2.642-2.313 4.318-5.764 4.318-9.618C42.5 23.648 37.023 18 30.268 18c-6.756 0-12.232 5.648-12.232 12.614 0 3.815 1.641 7.234 4.236 9.547.452.403.513 1.11.09 1.544l-1.434 1.473a.681.681 0 1 0 .976.951l1.88-1.93a1.058 1.058 0 0 1 1.226-.191 11.878 11.878 0 0 0 5.258 1.221c1.841 0 3.587-.42 5.154-1.17Zm-5.154-.23c6.005 0 10.873-5.02 10.873-11.214 0-6.192-4.868-11.212-10.873-11.212-6.005 0-10.873 5.02-10.873 11.212 0 6.193 4.868 11.213 10.873 11.213Zm-.76-11.53V22.94a.781.781 0 1 1 1.563 0v8.183c0 .443-.36.803-.803.803a.76.76 0 0 1-.76-.76V30.298Z"/>
  </mask>
  <path fill-rule="evenodd" clip-rule="evenodd" d="M35.422 42.058a1.058 1.058 0 0 1 1.217.196l1.825 1.875a.682.682 0 0 0 .977-.95l-1.357-1.394c-.426-.438-.361-1.15.098-1.552 2.642-2.313 4.318-5.764 4.318-9.618C42.5 23.648 37.023 18 30.268 18c-6.756 0-12.232 5.648-12.232 12.614 0 3.815 1.641 7.234 4.236 9.547.452.403.513 1.11.09 1.544l-1.434 1.473a.681.681 0 1 0 .976.951l1.88-1.93a1.058 1.058 0 0 1 1.226-.191 11.878 11.878 0 0 0 5.258 1.221c1.841 0 3.587-.42 5.154-1.17Zm-5.154-.23c6.005 0 10.873-5.02 10.873-11.214 0-6.192-4.868-11.212-10.873-11.212-6.005 0-10.873 5.02-10.873 11.212 0 6.193 4.868 11.213 10.873 11.213Zm-.76-11.53V22.94a.781.781 0 1 1 1.563 0v8.183c0 .443-.36.803-.803.803a.76.76 0 0 1-.76-.76V30.298Z" fill="#fff"/>
  <path fill="#fff" d="M29.5 19v-4H31v4z"/>
  <rect x="22.5" y="15" width="15.5" height="1.5" rx=".75" fill="#fff"/>
</svg>
