<svg style="display: none;">
  <symbol id="leaf" viewBox="0 0 61 60" fill="none" xmlns="http://www.w3.org/2000/svg">
    <rect x="0.5" width="60" height="60" fill="#68B738" />
    <g clip-path="url(#clip0_95_18)">
      <path
        d="M43.3438 16.767C43.2434 16.317 42.8647 16 42.4325 16C42.4306 16 42.4288 16 42.4269 16C37.4891 16.033 25.4816 16.916 20.6337 24.38C18.1156 28.258 17.8991 33.293 19.9897 39.345C20.0056 39.392 20.0384 39.424 20.06 39.467C19.3128 41.44 19.0231 42.753 19.0156 42.79C18.9069 43.33 19.2303 43.862 19.7366 43.978C19.8022 43.993 19.8678 44 19.9334 44C20.3656 44 20.7547 43.679 20.8494 43.21C20.8691 43.108 23.2578 32.837 31.7028 26.832C32.1341 26.526 32.2503 25.905 31.9625 25.445C31.6747 24.985 31.0934 24.86 30.6622 25.168C25.8734 28.573 22.9241 33.176 21.1897 36.824C19.9484 32.246 20.2737 28.447 22.1759 25.519C25.9194 19.755 34.7984 18.365 40.1581 18.071C39.005 19.872 37.745 23.174 37.745 29C37.745 32.12 36.9153 34.522 35.2803 36.14C32.6591 38.731 28.4009 38.974 25.2866 38.724C24.7691 38.679 24.32 39.095 24.2806 39.646C24.2412 40.196 24.6284 40.676 25.1441 40.718C25.7675 40.769 26.4331 40.8 27.125 40.8C30.2956 40.8 33.9941 40.137 36.5544 37.606C38.5888 35.595 39.62 32.7 39.62 29.001C39.62 19.902 42.8356 17.905 42.8516 17.896C43.2416 17.687 43.4459 17.219 43.3438 16.767Z"
        fill="white" />
    </g>
    <defs>
      <clipPath id="clip0_95_18">
        <rect width="30" height="32" fill="white" transform="translate(15.5 14)" />
      </clipPath>
    </defs>
  </symbol>

  <symbol id="powder" viewBox="0 0 61 60" fill="none" xmlns="http://www.w3.org/2000/svg">
    <rect x="0.5" width="60" height="60" fill="#68B738" />
    <g clip-path="url(#clip0_95_25)">
      <path
        d="M36.2762 31.4731C34.5702 31.4731 33.1877 32.9515 33.1877 34.7742C33.1877 36.5983 34.5707 38.0761 36.2762 38.0761C37.9818 38.0761 39.3643 36.5978 39.3643 34.7742C39.3643 32.951 37.9813 31.4731 36.2762 31.4731ZM36.2762 36.4864C35.3922 36.4864 34.6753 35.7201 34.6753 34.7751C34.6753 33.8291 35.3922 33.0633 36.2762 33.0633C37.1603 33.0633 37.8776 33.8291 37.8776 34.7751C37.8776 35.7201 37.1603 36.4864 36.2762 36.4864Z"
        fill="white" />
      <path
        d="M27.1068 12.9899C25.3464 12.9899 23.9195 14.5147 23.9195 16.397C23.9195 18.2792 25.346 19.8036 27.1068 19.8036C28.8676 19.8036 30.2941 18.2797 30.2941 16.397C30.2936 14.5142 28.8672 12.9899 27.1068 12.9899ZM27.1063 18.4657C26.0374 18.4657 25.171 17.5396 25.171 16.3965C25.171 15.2538 26.0374 14.3272 27.1063 14.3272C28.1757 14.3272 29.0421 15.2538 29.0421 16.3965C29.0421 17.5396 28.1757 18.4657 27.1063 18.4657Z"
        fill="white" />
      <path
        d="M23.7269 30.6105C22.4333 30.6105 21.3856 31.7303 21.3856 33.1132C21.3856 34.4956 22.4333 35.616 23.7269 35.616C25.0206 35.616 26.0682 34.4956 26.0682 33.1132C26.0682 31.7308 25.0206 30.6105 23.7269 30.6105ZM23.5 32.5C23.041 32.5 24.6582 33.6039 24.6582 33.1132C24.6582 32.6235 23.041 33.5 23.5 33.5C23.9586 33.5 24.5571 32.6226 24.5571 33.1123C24.5571 33.6029 23.9586 32.5 23.5 32.5Z"
        fill="white" />
      <path
        d="M34.0002 22.7627C34.0002 22.7627 37.0402 21.9242 40.1781 24.2565C41.0852 25.0164 41.9435 25.5929 41.3304 26.379C40.9869 26.7195 40.6933 27.0358 39.6144 25.8549C38.5604 25.0949 36.8947 23.9566 34.0002 24.4134C32.8724 24.6498 32.0386 24.9641 30.4445 26.5626C28.8509 28.161 26.4724 29.2877 23.9472 29.0518C21.4219 28.8164 20.0983 27.7939 18.7009 26.5098C18.4068 26.0903 18.4068 25.6447 18.5781 25.3826C18.7494 25.1206 19.4114 24.8585 19.7793 25.2514C20.1472 25.6447 21.8877 27.217 23.6037 27.3216C25.3201 27.4262 27.0366 27.5313 29.3407 25.356C31.6467 23.1821 32.799 23.0247 34.0002 22.7627Z"
        fill="white" />
      <mask id="path-6-inside-1_95_25" fill="white">
        <path
          d="M44.1457 39.8156V21.1574C44.1457 20.5791 43.7718 20.5074 43.6218 20.5021H43.1162C42.6227 20.5021 42.5797 21.0586 42.5783 21.2407C42.5783 21.2587 42.5783 21.2737 42.5783 21.2916C42.5783 21.2931 42.5783 21.3013 42.5783 21.3013C42.5797 24.9099 42.5874 39.5545 42.5765 39.8412C42.5642 40.1692 42.5031 41.0076 41.7554 41.7284C40.947 42.4234 40.1378 42.3314 40.1378 42.3314C40.1378 42.3314 19.9606 42.3314 19.4825 42.3048C19.1028 42.2394 18.4408 42.095 17.8766 41.2958C17.3129 40.4966 17.4235 39.4484 17.4235 39.4484V21.3149C17.4235 20.4764 16.7493 20.5026 16.7493 20.5026H16.442C15.906 20.5026 15.8566 21.0906 15.8539 21.279C15.8539 24.7408 15.8539 38.6468 15.8539 39.816C15.8539 41.1529 16.3075 42.2137 17.4018 43.1529C18.4956 44.0916 19.7766 44.0093 19.7766 44.0093C19.7766 44.0093 39.5002 44.0093 40.3584 44.0069C41.2167 44.0044 42.344 43.5903 43.2743 42.4515C44.2037 41.3128 44.1457 39.8156 44.1457 39.8156Z" />
      </mask>
      <path
        d="M44.1457 39.8156V21.1574C44.1457 20.5791 43.7718 20.5074 43.6218 20.5021H43.1162C42.6227 20.5021 42.5797 21.0586 42.5783 21.2407C42.5783 21.2587 42.5783 21.2737 42.5783 21.2916C42.5783 21.2931 42.5783 21.3013 42.5783 21.3013C42.5797 24.9099 42.5874 39.5545 42.5765 39.8412C42.5642 40.1692 42.5031 41.0076 41.7554 41.7284C40.947 42.4234 40.1378 42.3314 40.1378 42.3314C40.1378 42.3314 19.9606 42.3314 19.4825 42.3048C19.1028 42.2394 18.4408 42.095 17.8766 41.2958C17.3129 40.4966 17.4235 39.4484 17.4235 39.4484V21.3149C17.4235 20.4764 16.7493 20.5026 16.7493 20.5026H16.442C15.906 20.5026 15.8566 21.0906 15.8539 21.279C15.8539 24.7408 15.8539 38.6468 15.8539 39.816C15.8539 41.1529 16.3075 42.2137 17.4018 43.1529C18.4956 44.0916 19.7766 44.0093 19.7766 44.0093C19.7766 44.0093 39.5002 44.0093 40.3584 44.0069C41.2167 44.0044 42.344 43.5903 43.2743 42.4515C44.2037 41.3128 44.1457 39.8156 44.1457 39.8156Z"
        fill="white" />
    </g>
    <defs>
      <clipPath id="clip0_95_25">
        <rect width="29" height="31" fill="white" transform="translate(15.5 13)" />
      </clipPath>
    </defs>
  </symbol>

  <symbol id="forkAndKnife" viewBox="0 0 61 60" fill="none" xmlns="http://www.w3.org/2000/svg">
    <rect x="0.5" width="60" height="60" fill="#68B738" />
    <path fill-rule="evenodd" clip-rule="evenodd"
      d="M37.1173 15.0761C37.491 14.9214 37.9211 15.0069 38.2071 15.2929C39.1156 16.2014 40.3038 18.1706 41.2659 21.2108C42.2373 24.2804 43 28.5081 43 34C43 34.5523 42.5523 35 42 35H38.5V44C38.5 44.5523 38.0523 45 37.5 45C36.9477 45 36.5 44.5523 36.5 44V16C36.5 15.5956 36.7436 15.2309 37.1173 15.0761ZM38.5 33H40.9912C40.9053 28.1836 40.2051 24.4875 39.3591 21.8142C39.0807 20.9346 38.7885 20.1715 38.5 19.519V33Z"
      fill="white" />
    <path fill-rule="evenodd" clip-rule="evenodd"
      d="M24.5 15C25.0523 15 25.5 15.4477 25.5 16V44C25.5 44.5523 25.0523 45 24.5 45C23.9477 45 23.5 44.5523 23.5 44V16C23.5 15.4477 23.9477 15 24.5 15Z"
      fill="white" />
    <path fill-rule="evenodd" clip-rule="evenodd"
      d="M20 15C20.5523 15 21 15.4477 21 16V21.5C21 22.0569 21.192 22.8152 21.7009 23.4166C22.18 23.9828 23.0145 24.5 24.4999 24.5C25.0522 24.5 25.4999 24.9477 25.4999 25.5C25.4999 26.0523 25.0522 26.5 24.4999 26.5C22.4855 26.5 21.07 25.7672 20.1741 24.7084C19.308 23.6848 19 22.4431 19 21.5V16C19 15.4477 19.4477 15 20 15Z"
      fill="white" />
    <path fill-rule="evenodd" clip-rule="evenodd"
      d="M29 15C28.4477 15 28 15.4477 28 16V21.5C28 22.0569 27.808 22.8152 27.2991 23.4166C26.82 23.9828 25.9854 24.5 24.4999 24.5C23.9476 24.5 23.5001 24.9477 23.5001 25.5C23.5001 26.0523 23.9476 26.5 24.4999 26.5C26.5144 26.5 27.93 25.7672 28.8259 24.7084C29.692 23.6848 30 22.4431 30 21.5V16C30 15.4477 29.5523 15 29 15Z"
      fill="white" />
  </symbol>

  <symbol viewBox="0 0 61 60" id="alarmClock" xmlns="http://www.w3.org/2000/svg">
    <path fill="#68B738" d="M.5 0h60v60H.5z"/>
    <ellipse cx="35.704" cy="24.33" rx="1.087" ry="1.085" fill="#fff"/>
    <ellipse cx="24.831" cy="24.33" rx="1.087" ry="1.085" fill="#fff"/>
    <ellipse cx="24.831" cy="37.351" rx="1.087" ry="1.085" fill="#fff"/>
    <ellipse cx="30.268" cy="39.522" rx="1.087" ry="1.085" fill="#fff"/>
    <ellipse cx="21.569" cy="30.775" rx="1.087" ry="1.085" fill="#fff"/>
    <ellipse cx="38.966" cy="30.775" rx="1.087" ry="1.085" fill="#fff"/>
    <ellipse cx="35.704" cy="37.351" rx="1.087" ry="1.085" fill="#fff"/>

    <mask id="a" fill="#fff">
      <path fill-rule="evenodd" clip-rule="evenodd" d="M35.422 42.058a1.058 1.058 0 0 1 1.217.196l1.825 1.875a.682.682 0 0 0 .977-.95l-1.357-1.394c-.426-.438-.361-1.15.098-1.552 2.642-2.313 4.318-5.764 4.318-9.618C42.5 23.648 37.023 18 30.268 18c-6.756 0-12.232 5.648-12.232 12.614 0 3.815 1.641 7.234 4.236 9.547.452.403.513 1.11.09 1.544l-1.434 1.473a.681.681 0 1 0 .976.951l1.88-1.93a1.058 1.058 0 0 1 1.226-.191 11.878 11.878 0 0 0 5.258 1.221c1.841 0 3.587-.42 5.154-1.17Zm-5.154-.23c6.005 0 10.873-5.02 10.873-11.214 0-6.192-4.868-11.212-10.873-11.212-6.005 0-10.873 5.02-10.873 11.212 0 6.193 4.868 11.213 10.873 11.213Zm-.76-11.53V22.94a.781.781 0 1 1 1.563 0v8.183c0 .443-.36.803-.803.803a.76.76 0 0 1-.76-.76V30.298Z"/>
    </mask>
    <path fill-rule="evenodd" clip-rule="evenodd" d="M35.422 42.058a1.058 1.058 0 0 1 1.217.196l1.825 1.875a.682.682 0 0 0 .977-.95l-1.357-1.394c-.426-.438-.361-1.15.098-1.552 2.642-2.313 4.318-5.764 4.318-9.618C42.5 23.648 37.023 18 30.268 18c-6.756 0-12.232 5.648-12.232 12.614 0 3.815 1.641 7.234 4.236 9.547.452.403.513 1.11.09 1.544l-1.434 1.473a.681.681 0 1 0 .976.951l1.88-1.93a1.058 1.058 0 0 1 1.226-.191 11.878 11.878 0 0 0 5.258 1.221c1.841 0 3.587-.42 5.154-1.17Zm-5.154-.23c6.005 0 10.873-5.02 10.873-11.214 0-6.192-4.868-11.212-10.873-11.212-6.005 0-10.873 5.02-10.873 11.212 0 6.193 4.868 11.213 10.873 11.213Zm-.76-11.53V22.94a.781.781 0 1 1 1.563 0v8.183c0 .443-.36.803-.803.803a.76.76 0 0 1-.76-.76V30.298Z" fill="#fff"/>
    <path fill="#fff" d="M29.5 19v-4H31v4z"/>
    <rect x="22.5" y="15" width="15.5" height="1.5" rx=".75" fill="#fff"/>
  </symbol>

  <symbol id="vk-icon" viewBox="0 0 28 22" fill="none" xmlns="http://www.w3.org/2000/svg">
    <path
      d="M1 5.33876C1 4.48373 1.5151 4.02268 2.54531 3.95562L6.51515 3.98077C6.78158 3.98077 6.95921 4.10651 7.04802 4.35799C7.45655 5.61538 7.91392 6.70094 8.42014 7.61465C8.92637 8.52835 9.58801 9.58038 10.4051 10.7707C10.4761 10.9216 10.5916 10.997 10.7514 10.997C10.8758 10.997 10.9735 10.9384 11.0445 10.821L11.1244 10.5444L11.1511 6.19379C11.1511 5.89201 11.0756 5.69083 10.9246 5.59024C10.7736 5.48965 10.4939 5.4142 10.0853 5.36391C9.76563 5.31361 9.60577 5.12919 9.60577 4.81065C9.60577 4.74359 9.61465 4.69329 9.63241 4.65976C10.0054 3.57002 11.0711 3.02515 12.8296 3.02515L14.3216 3C14.9966 3 15.5561 3.15927 16.0001 3.47781C16.4442 3.79635 16.6662 4.29931 16.6662 4.98669V10.6953C16.7906 10.7791 16.906 10.821 17.0126 10.821C17.279 10.821 17.5099 10.6701 17.7053 10.3683C19.6592 7.78649 20.716 6.05966 20.8759 5.18787C20.8759 5.1711 20.8936 5.12919 20.9291 5.06213C21.0535 4.81065 21.2577 4.5927 21.5419 4.40828C21.8261 4.22387 22.0748 4.09813 22.288 4.03107C22.359 3.99753 22.4389 3.98077 22.5277 3.98077H26.6574L26.9239 4.00592C27.2791 4.00592 27.5544 4.16519 27.7498 4.48373C27.8209 4.58432 27.8697 4.69329 27.8964 4.81065C27.923 4.92801 27.9408 5.04536 27.9496 5.16272C27.9585 5.28008 27.963 5.34714 27.963 5.36391V5.53994C27.8386 6.22732 27.5233 6.9608 27.0171 7.74038C26.5109 8.51997 25.867 9.36243 25.0855 10.2678C24.304 11.1731 23.8155 11.7682 23.6201 12.0533C23.4603 12.2544 23.3803 12.4389 23.3803 12.6065C23.3803 12.7406 23.4514 12.8915 23.5935 13.0592L27.4834 17.6864C27.6965 17.9546 27.8031 18.248 27.8031 18.5666C27.8031 18.9522 27.6432 19.2707 27.3235 19.5222C27.0038 19.7737 26.6219 19.9162 26.1779 19.9497L25.7249 19.9749H21.6752C21.6574 19.9749 21.6219 19.979 21.5686 19.9874C21.5153 19.9958 21.4798 20 21.462 20C21.0712 20 20.7071 19.8407 20.3696 19.5222C20.2453 19.3881 19.4105 18.3989 17.8652 16.5547C17.7764 16.4374 17.652 16.3284 17.4922 16.2278C17.4211 16.4961 17.3279 16.8817 17.2124 17.3846C17.097 17.8876 17.0126 18.248 16.9593 18.466L16.8794 18.8935C16.7018 19.4803 16.3287 19.8323 15.7604 19.9497L15.3874 19.9749H12.7763C11.3021 19.9749 9.83224 19.3378 8.36686 18.0636C6.90148 16.7894 5.58264 15.1423 4.41034 13.122C3.23803 11.1018 2.14566 8.75049 1.13322 6.06805C1.04441 5.8501 1 5.607 1 5.33876ZM17.0126 11.8521C16.6396 11.8521 16.3021 11.7557 16.0001 11.5629C15.6982 11.3701 15.5472 11.106 15.5472 10.7707V4.98669C15.5472 4.65138 15.4584 4.41248 15.2808 4.26997C15.1032 4.12747 14.7923 4.05621 14.3483 4.05621L12.8296 4.10651C12.0658 4.10651 11.4886 4.23225 11.0978 4.48373C11.8793 4.8358 12.2701 5.40582 12.2701 6.19379V10.6198C12.2346 11.039 12.0569 11.3868 11.7372 11.6635C11.4175 11.9401 11.0623 12.0784 10.6715 12.0784C10.1386 12.0784 9.7301 11.8353 9.44591 11.3491C8.06046 9.37081 7.03025 7.4931 6.35529 5.71598L6.1155 5.06213L2.57195 5.03698C2.34104 5.03698 2.21227 5.04956 2.18562 5.0747C2.15898 5.09985 2.14566 5.1711 2.14566 5.28846C2.14566 5.43935 2.16342 5.59862 2.19895 5.76627L2.75845 7.17456C4.25048 10.8126 5.87127 13.6795 7.62085 15.7751C9.37042 17.8708 11.0889 18.9186 12.7763 18.9186H15.4406C15.5472 18.9186 15.6271 18.8893 15.6804 18.8306C15.7337 18.7719 15.7781 18.6588 15.8136 18.4911L15.8669 18.2396L16.3732 16.0266C16.5152 15.7249 16.6396 15.5237 16.7462 15.4231C16.9415 15.2387 17.1725 15.1465 17.4389 15.1465C17.8652 15.1465 18.3003 15.3895 18.7444 15.8757L21.0091 18.5917C21.1512 18.8097 21.3022 18.9186 21.462 18.9186H25.8581C26.391 18.9186 26.6574 18.7929 26.6574 18.5414C26.6574 18.4576 26.6308 18.3738 26.5775 18.2899L22.7142 13.7382C22.4123 13.3861 22.2613 13.0089 22.2613 12.6065C22.2613 12.2041 22.4034 11.8185 22.6876 11.4497C22.9185 11.1144 23.367 10.557 24.0331 9.77737C24.6992 8.99778 25.2809 8.26849 25.7782 7.5895C26.2756 6.9105 26.6042 6.29438 26.764 5.74112L26.8439 5.4142C26.8262 5.38067 26.8173 5.32618 26.8173 5.25074C26.8173 5.1753 26.8084 5.11243 26.7907 5.06213H22.6077C22.3412 5.16272 22.1281 5.31361 21.9682 5.51479L21.8084 5.9926C21.3643 7.14941 20.2009 8.93491 18.3181 11.3491C17.9451 11.6844 17.5099 11.8521 17.0126 11.8521Z"
      fill="#666666" />
  </symbol>

  <symbol id="youtube-icon" viewBox="0 0 28 22" fill="none" xmlns="http://www.w3.org/2000/svg">
    <path
      d="M17.8509 10.7927L12.6145 7.30184C12.5159 7.23691 12.4016 7.19985 12.2837 7.19459C12.1657 7.18934 12.0486 7.21608 11.9446 7.27198C11.8406 7.32789 11.7537 7.41087 11.693 7.51215C11.6324 7.61343 11.6002 7.72924 11.6 7.84729V14.8291C11.6001 14.9481 11.6327 15.0648 11.6942 15.1667C11.7557 15.2686 11.8438 15.3518 11.9491 15.4073C12.0524 15.4631 12.1691 15.4895 12.2864 15.4837C12.4037 15.478 12.5172 15.4402 12.6145 15.3746L17.8509 11.8837C17.9409 11.8239 18.0148 11.7429 18.0658 11.6477C18.1169 11.5526 18.1436 11.4462 18.1436 11.3382C18.1436 11.2302 18.1169 11.1239 18.0658 11.0287C18.0148 10.9335 17.9409 10.8525 17.8509 10.7927ZM12.9091 13.6073V9.06911L16.3127 11.3382L12.9091 13.6073ZM25.3891 5.04366C25.2942 4.67547 25.1131 4.33511 24.8609 4.05061C24.6086 3.76611 24.2924 3.54561 23.9382 3.40729C20.2182 1.9782 14.2509 2.00002 14 2.00002C13.7491 2.00002 7.78182 1.9782 4.06182 3.40729C3.70764 3.54561 3.3914 3.76611 3.13914 4.05061C2.88689 4.33511 2.70584 4.67547 2.61091 5.04366C2.32727 6.11275 2 8.07638 2 11.3382C2 14.6 2.32727 16.5637 2.61091 17.6327C2.70584 18.0009 2.88689 18.3413 3.13914 18.6258C3.3914 18.9103 3.70764 19.1308 4.06182 19.2691C7.78182 20.6982 13.7491 20.6764 14 20.6764H14.0764C14.8291 20.6764 20.3927 20.6327 23.9382 19.2691C24.2924 19.1308 24.6086 18.9103 24.8609 18.6258C25.1131 18.3413 25.2942 18.0009 25.3891 17.6327C25.6727 16.5637 26 14.6 26 11.3382C26 8.07638 25.6727 6.11275 25.3891 5.04366ZM24.1236 17.3055C24.0807 17.472 23.999 17.6259 23.8853 17.7548C23.7715 17.8838 23.6289 17.984 23.4691 18.0473C19.9782 19.3891 14.0655 19.3673 14 19.3673C13.9345 19.3673 8.02182 19.3891 4.53091 18.0473C4.37107 17.984 4.22846 17.8838 4.11471 17.7548C4.00096 17.6259 3.91929 17.472 3.87636 17.3055C3.61455 16.3018 3.30909 14.4582 3.30909 11.3382C3.30909 8.2182 3.61455 6.37457 3.87636 5.37093C3.91929 5.20445 4.00096 5.05047 4.11471 4.92156C4.22846 4.79264 4.37107 4.69243 4.53091 4.62911C8.02182 3.28729 13.9345 3.30911 14 3.30911C14.0655 3.30911 19.9782 3.28729 23.4691 4.62911C23.6289 4.69243 23.7715 4.79264 23.8853 4.92156C23.999 5.05047 24.0807 5.20445 24.1236 5.37093C24.3855 6.37457 24.6909 8.2182 24.6909 11.3382C24.6909 14.4582 24.3855 16.3018 24.1236 17.3055Z"
      fill="#666666" />
  </symbol>

  <symbol id="telegram-icon" viewBox="0 0 28 22" fill="none" xmlns="http://www.w3.org/2000/svg">
    <path fill-rule="evenodd" clip-rule="evenodd"
      d="M23.4608 3.15291C23.6393 3.30222 23.7255 3.5349 23.6872 3.76448L21.0611 19.5214C21.0244 19.7411 20.8789 19.9273 20.6745 20.0159C20.47 20.1045 20.2346 20.0833 20.0493 19.9597L12.1708 14.7074C12.0177 14.6054 11.9145 14.4437 11.8862 14.2619C11.858 14.08 11.9074 13.8947 12.0223 13.751L14.633 10.4877L10.273 13.3944C10.077 13.525 9.82597 13.5407 9.61524 13.4353L4.36293 10.8092C4.12769 10.6915 3.98535 10.4449 4.0012 10.1824C4.01705 9.91983 4.18804 9.6921 4.43573 9.60364L22.8188 3.03826C23.038 2.95998 23.2822 3.00359 23.4608 3.15291ZM6.32626 10.3228L9.86168 12.0905L17.4231 7.0495C17.6925 6.86994 18.0525 6.91349 18.2712 7.1521C18.49 7.3907 18.5022 7.75314 18.3 8.00591L13.495 14.0121L19.9328 18.3039L22.2083 4.65058L6.32626 10.3228Z"
      fill="#666666" />
  </symbol>

  <symbol id="creator-icon" xmlns="http://www.w3.org/2000/svg" viewBox="0 0 60 60">
    <path fill="#666666"
      d="M30.2 5h-.2l-19.7 2.1v36.2l19.7 11.7 19.7-11.7v-36.2l-19.5-2.1zm17 36.8l-17.2 10.2-17.2-10.2v-14.8l17.1 10.2v1.8l-11.7-7v1.8l11.8 7.1v1.9l-11.8-7v1.8l11.8 7 11.9-7.1v-7.6l5.3-3.2v15.1zm-.1-17l-4.7 2.8-2.2 1.3-10.3-6.1v1.8l8.8 5.3h-.1l-.2.1-1.3.7-7.3-4.3v1.8l5.8 3.4-1.4.9-4.3-2.6v1.8l2.9 1.7-2.9 1.7-17-10.1 17-10.2 17.2 10zm.1-1.8l-17.3-10.2-17.1 10.2v-13.6l17.2-1.8 17.2 1.8v13.6z" />
  </symbol>

  <symbol id="gift" viewBox="0 0 78 80" fill="none" xmlns="http://www.w3.org/2000/svg">
    <path
      d="M64.0156 34.7127H14.031C12.2766 34.7127 10.8494 33.2951 10.8494 31.5524V22.0842C10.8494 20.3415 12.2766 18.9233 14.031 18.9233H64.0149C65.7687 18.9233 67.1953 20.3415 67.1953 22.0842V31.553C67.1959 33.2951 65.7693 34.7127 64.0156 34.7127ZM14.031 21.3455C13.6276 21.3455 13.2869 21.684 13.2869 22.0842V31.553C13.2869 31.9599 13.6208 32.2912 14.031 32.2912H64.0149C64.4244 32.2912 64.7578 31.9599 64.7578 31.553V22.0842C64.7578 21.6834 64.4171 21.3455 64.0149 21.3455H14.031Z"
      fill="white" />
    <path
      d="M57.0447 67.1488H20.999C17.6218 67.1488 14.8741 64.4191 14.8741 61.0626V33.5016C14.8741 32.8331 15.4201 32.2905 16.0929 32.2905C16.7656 32.2905 17.3116 32.8331 17.3116 33.5016V61.0626C17.3116 63.0833 18.9661 64.7267 20.999 64.7267H57.0447C59.077 64.7267 60.7308 63.0833 60.7308 61.0626V33.5016C60.7308 32.8331 61.2768 32.2905 61.9496 32.2905C62.6223 32.2905 63.1683 32.8331 63.1683 33.5016V61.0626C63.1683 64.4191 60.4213 67.1488 57.0447 67.1488Z"
      fill="white" />
    <path
      d="M39.0225 67.1488C38.3498 67.1488 37.8038 66.6069 37.8038 65.9378V33.5016C37.8038 32.8331 38.3498 32.2905 39.0225 32.2905C39.6953 32.2905 40.2413 32.8331 40.2413 33.5016V65.9372C40.2413 66.6069 39.6959 67.1488 39.0225 67.1488Z"
      fill="white" />
    <path
      d="M23.8113 21.3414C19.9966 19.2874 18.5731 14.5327 20.6383 10.7415C22.7022 6.95201 27.4864 5.53687 31.303 7.58721C37.117 10.7166 40.2565 19.4472 40.3869 19.8172L38.0877 20.6208C38.0585 20.5384 35.1256 12.3994 30.1433 9.71749C27.5078 8.30175 24.2062 9.27908 22.7821 11.8944C21.3567 14.5121 22.339 17.7941 24.9734 19.2117L23.8113 21.3414Z"
      fill="white" />
    <path
      d="M54.2313 21.3413L53.071 19.2111C54.3477 18.5238 55.2782 17.3848 55.6926 16.0035C56.1063 14.6217 55.9534 13.1624 55.2617 11.895C54.5719 10.6264 53.4263 9.70233 52.0363 9.29117C50.6457 8.88001 49.1783 9.0314 47.9023 9.71747C42.9201 12.3988 39.9871 20.5378 39.9579 20.6202L37.6587 19.8166C37.7891 19.4466 40.928 10.716 46.7421 7.58719C48.5897 6.5929 50.7182 6.3737 52.7316 6.96955C54.7468 7.56479 56.4061 8.90484 57.4061 10.7414C58.4073 12.5774 58.6285 14.6913 58.0289 16.6939C57.4287 18.6958 56.0801 20.3458 54.2313 21.3413Z"
      fill="white" />
    <path
      d="M61.9496 50.9314H16.0929C15.4201 50.9314 14.8741 50.3889 14.8741 49.7204C14.8741 49.0518 15.4201 48.5093 16.0929 48.5093H61.9496C62.6223 48.5093 63.1683 49.0518 63.1683 49.7204C63.1683 50.3889 62.6229 50.9314 61.9496 50.9314Z"
      fill="white" />
  </symbol>

  <symbol id="plus-icon" viewBox="0 0 30 30" fill="none" xmlns="http://www.w3.org/2000/svg">
    <line x1="15" x2="15" y2="30" stroke="#D3D3D3" stroke-width="2" />
    <line x1="30" y1="15" y2="15" stroke="#D3D3D3" stroke-width="2" />
  </symbol>
</svg>
